<svg width="155" height="37" viewBox="0 0 155 37" fill="none" xmlns="http://www.w3.org/2000/svg">
<path d="M62.5769 22.8999V29.3498H58.7725V11.0319H65.9723C67.2345 11.0059 68.4863 11.2639 69.6339 11.7866C70.6355 12.2538 71.4791 13 72.062 13.9344C72.6318 14.8902 72.924 15.9842 72.906 17.0949C72.9434 17.8972 72.7956 18.6973 72.4737 19.4341C72.1519 20.1708 71.6646 20.8246 71.0492 21.3454C69.8157 22.3817 68.1017 22.8999 65.9074 22.8999H62.5769ZM62.5769 19.8361H65.9723C66.8017 19.8935 67.6229 19.6429 68.277 19.1331C68.5476 18.8745 68.7586 18.5607 68.8953 18.2132C69.0321 17.8658 69.0913 17.4931 69.0691 17.1207C69.0873 16.723 69.0261 16.3256 68.889 15.9514C68.752 15.5773 68.5418 15.2337 68.2705 14.9406C67.9789 14.6556 67.6311 14.4335 67.2491 14.2881C66.867 14.1427 66.4589 14.0772 66.0502 14.0957H62.5769V19.8361Z" fill="white"/>
<path d="M77.8465 29.3499H74.1719V10H77.8465V29.3499Z" fill="white"/>
<path d="M87.5198 29.3499C87.3337 28.965 87.2088 28.5538 87.1498 28.1308C86.7169 28.6131 86.1825 28.9948 85.5845 29.249C84.9865 29.5031 84.3395 29.6234 83.6895 29.6014C82.4678 29.6451 81.2743 29.2307 80.346 28.4404C79.9245 28.08 79.5892 27.6307 79.3646 27.1252C79.14 26.6198 79.0317 26.0709 79.0475 25.5186C79.0242 24.8869 79.157 24.2592 79.4343 23.6902C79.7115 23.1213 80.1249 22.6285 80.6381 22.2549C81.7158 21.4809 83.274 21.0896 85.3125 21.081H87.0005V20.2683C87.0295 19.723 86.8563 19.186 86.5136 18.7591C86.3134 18.558 86.0713 18.403 85.8044 18.305C85.5374 18.2069 85.2521 18.1682 84.9684 18.1915C84.4483 18.159 83.934 18.3148 83.5207 18.6301C83.3464 18.7781 83.2084 18.9637 83.1173 19.1727C83.0262 19.3817 82.9843 19.6086 82.9948 19.8362H79.3267C79.3281 19.0479 79.5854 18.2811 80.0603 17.6497C80.5956 16.9426 81.3166 16.3958 82.1443 16.0694C83.0999 15.673 84.1278 15.4776 85.1632 15.4954C86.6182 15.4244 88.0493 15.8831 89.1883 16.7854C89.6865 17.2265 90.0787 17.7731 90.336 18.3848C90.5933 18.9965 90.7092 19.6578 90.6751 20.3199V26.2281C90.6234 27.2353 90.8102 28.2404 91.2204 29.1628V29.3499H87.5198ZM84.488 26.8151C85.0096 26.8202 85.5244 26.6984 85.9877 26.4603C86.416 26.2469 86.7691 25.9096 87.0005 25.4928V23.1773H85.6306C83.7912 23.1773 82.8152 23.8072 82.7026 25.0671V25.28C82.6955 25.4905 82.7348 25.7001 82.8178 25.8939C82.9008 26.0878 83.0255 26.2613 83.1831 26.4023C83.545 26.7099 84.0124 26.867 84.488 26.8409V26.8151Z" fill="white"/>
<path d="M98.355 24.2222L100.887 15.7469H104.821L99.3028 31.4913L98.9977 32.2072C98.6885 33.0192 98.1305 33.7142 97.4026 34.1944C96.6746 34.6747 95.8133 34.9158 94.9401 34.8839C94.39 34.88 93.8434 34.7975 93.317 34.6388V31.8847H93.8754C94.4137 31.9171 94.9511 31.8081 95.4335 31.5687C95.8065 31.3139 96.0884 30.948 96.2385 30.5238L96.667 29.4015L91.8628 15.734H95.8036L98.355 24.2222Z" fill="white"/>
<path d="M118.423 12.3413H112.093V29.3499H110.535V12.3413H104.218V11.0513H118.423V12.3413Z" fill="white"/>
<path d="M127.271 27.6471C126.362 28.9371 124.902 29.6272 122.902 29.6272C122.285 29.6671 121.666 29.5722 121.09 29.3494C120.513 29.1265 119.993 28.7811 119.565 28.3372C118.731 27.2701 118.316 25.9384 118.397 24.5898V15.7469H119.935V24.4221C119.935 27.0021 120.987 28.2921 123.103 28.2921C125.22 28.2921 126.694 27.3891 127.278 25.5831V15.7469H128.797V29.3498H127.323L127.271 27.6471Z" fill="white"/>
<path d="M142.463 22.7C142.56 24.4948 142.061 26.2716 141.042 27.7567C140.607 28.3544 140.032 28.8374 139.367 29.1635C138.701 29.4895 137.966 29.6487 137.224 29.6272C136.385 29.6686 135.548 29.4959 134.795 29.1256C134.042 28.7553 133.396 28.1997 132.92 27.5116L132.855 29.3757H131.433V10H132.92V17.74C133.369 17.023 134.004 16.4386 134.757 16.0473C135.511 15.6561 136.356 15.4722 137.205 15.5147C137.949 15.485 138.69 15.6376 139.362 15.9593C140.033 16.281 140.614 16.7618 141.055 17.3594C141.996 18.5849 142.47 20.3006 142.47 22.5194L142.463 22.7ZM140.938 22.4355C141.029 20.972 140.661 19.5164 139.886 18.2688C139.556 17.796 139.111 17.4139 138.592 17.1579C138.073 16.9019 137.498 16.7804 136.919 16.8047C136.04 16.7782 135.175 17.0263 134.445 17.5142C133.736 18.0384 133.203 18.7651 132.92 19.5975V25.7444C133.23 26.5436 133.787 27.2243 134.512 27.6881C135.237 28.1519 136.091 28.3747 136.951 28.3243C137.527 28.3453 138.097 28.2208 138.611 27.9625C139.124 27.7041 139.563 27.3204 139.886 26.8473C140.591 25.8626 140.942 24.392 140.938 22.4355Z" fill="white"/>
<path d="M149.799 29.6272C148.689 29.6471 147.597 29.3549 146.647 28.7843C145.697 28.2137 144.928 27.3879 144.43 26.4022C143.898 25.3365 143.629 24.1603 143.645 22.9708V22.429C143.628 21.2064 143.89 19.9958 144.411 18.888C144.883 17.8831 145.624 17.0264 146.553 16.4112C147.429 15.8222 148.463 15.5096 149.52 15.5147C150.266 15.4813 151.01 15.616 151.695 15.9086C152.381 16.2013 152.991 16.6443 153.48 17.2046C154.531 18.5088 155.068 20.1477 154.993 21.8163V22.6612H145.183V22.9515C145.133 24.3614 145.609 25.74 146.521 26.8215C146.928 27.3134 147.443 27.7075 148.025 27.9744C148.607 28.2414 149.243 28.3742 149.884 28.363C150.625 28.3784 151.36 28.2262 152.033 27.918C152.702 27.5892 153.282 27.1072 153.727 26.5119L154.682 27.2278C154.145 28.0118 153.413 28.6447 152.558 29.0651C151.703 29.4854 150.752 29.6791 149.799 29.6272ZM149.52 16.7789C148.977 16.7695 148.438 16.8757 147.94 17.0904C147.442 17.3051 146.995 17.6234 146.631 18.0237C145.805 18.9606 145.305 20.1364 145.203 21.3777H153.435V21.21C153.454 20.0362 153.054 18.8936 152.305 17.985C151.965 17.592 151.541 17.2797 151.064 17.071C150.586 16.8623 150.068 16.7625 149.546 16.7789H149.52Z" fill="white"/>
<path d="M18.4425 10.1861C16.837 10.1716 15.2632 10.6306 13.9203 11.5049C12.5773 12.3792 11.5256 13.6295 10.8981 15.0978C10.2705 16.5661 10.0954 18.1862 10.3949 19.7534C10.6943 21.3205 11.4549 22.7643 12.5804 23.9019C13.7058 25.0395 15.1456 25.82 16.7176 26.1445C18.2896 26.4691 19.9232 26.3231 21.4117 25.7251C22.9002 25.1271 24.1767 24.104 25.0798 22.7851C25.9829 21.4662 26.472 19.9109 26.4852 18.3158C26.5029 16.1784 25.6657 14.1214 24.1576 12.597C22.6495 11.0726 20.5939 10.2054 18.4425 10.1861ZM20.4938 19.9432L15.8452 22.5456V13.9907L20.4716 16.6957L23.2755 18.3158L20.4938 19.9432Z" fill="#00D08A"/>
<path fill-rule="evenodd" clip-rule="evenodd" d="M32.3845 4.35354H14.5118C8.90154 4.35354 4.35354 8.90155 4.35354 14.5118V32.1455H22.2262C27.8365 32.1455 32.3845 27.5974 32.3845 21.9872V4.35354ZM14.5118 0C6.49715 0 0 6.49716 0 14.5118V36.499H22.2262C30.2409 36.499 36.738 30.0018 36.738 21.9872V0H14.5118Z" fill="#00D08A"/>
</svg>
